<svg version="1.1" baseProfile="full" width="300" height="200" xmlns="http://www.w3.org/2000/svg">
  <defs>
    <style>
      @import url(https://fonts.googleapis.com/css?family=Overpass+Mono:300,400,600,700);
    </style>
  </defs>
  <rect x="1" y="1" width="400" height="250" stroke="black" fill="white" fill-opacity="1" stroke-opacity="1"/>
  <text x="20" y="50" font-size="30" font-family="Overpass Mono">
    ŠKOLENÍ GITU
  </text>
  <text x="20" y="90" font-family="Overpass Mono">
    Ondrej Sika,
  </text>
  <text x="20" y="120" font-family="Overpass Mono">
    sika.io
  </text>
  <text x="20" y="150" font-family="Overpass Mono">
    Praha, 31.1.2020
  </text>
  <text x="20" y="180" font-family="Overpass Mono">
    BRAIINS
  </text>
  <svg viewBox="0 0 24 24" xmlns="http://www.w3.org/2000/svg">
    <g id="Git">
      <g data-name="&lt;Group&gt;" id="_Group_" transform='translate(10 0)'>
        <path d="M23.21,11.29,12.71.79a1,1,0,0,0-1.41,0L.79,11.29a1,1,0,0,0,0,1.41l10.5,10.5a1,1,0,0,0,1.41,0l10.5-10.5a1,1,0,0,0,0-1.41Z" data-name="&lt;Path&gt;" id="_Path_" style="fill:none;stroke:#303c42;stroke-linecap:round;stroke-linejoin:round"/>
        <line data-name="&lt;Path&gt;" id="_Path_2" style="fill:none;stroke:#303c42;stroke-linecap:round;stroke-linejoin:round" x1="8.6" x2="10.94" y1="3.6" y2="5.94"/>
        <line data-name="&lt;Path&gt;" id="_Path_3" style="fill:none;stroke:#303c42;stroke-linecap:round;stroke-linejoin:round" x1="12" x2="12" y1="8.5" y2="15.5"/>
        <circle cx="12" cy="7" data-name="&lt;Path&gt;" id="_Path_4" r="1.5" style="fill:none;stroke:#303c42;stroke-linecap:round;stroke-linejoin:round"/>
        <circle cx="17" cy="12" data-name="&lt;Path&gt;" id="_Path_5" r="1.5" style="fill:none;stroke:#303c42;stroke-linecap:round;stroke-linejoin:round"/>
        <circle cx="12" cy="17" data-name="&lt;Path&gt;" id="_Path_6" r="1.5" style="fill:none;stroke:#303c42;stroke-linecap:round;stroke-linejoin:round"/>
        <line data-name="&lt;Path&gt;" id="_Path_7" style="fill:none;stroke:#303c42;stroke-linecap:round;stroke-linejoin:round" x1="13.05" x2="15.93" y1="8.07" y2="10.95"/>
      </g>
    </g>
  </svg>
</svg>
